<?xml version="1.0" encoding="UTF-8"?>
<!DOCTYPE svg PUBLIC "-//W3C//DTD SVG 1.1//EN" "http://www.w3.org/Graphics/SVG/1.1/DTD/svg11.dtd">
<!-- Creator: CorelDRAW -->
<svg xmlns="http://www.w3.org/2000/svg" xml:space="preserve" width="6.82666in" height="6.82666in" style="shape-rendering:geometricPrecision; text-rendering:geometricPrecision; image-rendering:optimizeQuality; fill-rule:evenodd; clip-rule:evenodd"
viewBox="0 0 6.82666 6.82666"
 xmlns:xlink="http://www.w3.org/1999/xlink">
 <defs>
  <style type="text/css">
   <![CDATA[
    .fil0 {fill:none}
    .fil2 {fill:#414141}
    .fil4 {fill:#6A6A6A}
    .fil3 {fill:gray}
    .fil5 {fill:#888888}
    .fil6 {fill:#ABABAB}
    .fil7 {fill:#BEBEBE}
    .fil1 {fill:#DADADA}
    .fil8 {fill:#616161;fill-rule:nonzero}
   ]]>
  </style>
 </defs>
 <g id="Layer_x0020_1">
  <metadata id="CorelCorpID_0Corel-Layer"/>
  <g id="_498560832">
   <rect id="_498560280" class="fil0" width="6.82666" height="6.82666"/>
   <rect id="_498560400" class="fil0" x="0.853331" y="0.853331" width="5.12" height="5.12"/>
  </g>
  <g id="_492573152">
   <polygon id="_498560976" class="fil1" points="3.70194,5.46656 4.48274,4.91094 4.49723,4.84294 3.63323,4.45795 3.58578,4.51531 "/>
   <path id="_498560856" class="fil2" d="M3.70194 5.46656l0.242823 -0.172795c-0.0314961,-0.0377756 -0.0719488,-0.0690748 -0.120004,-0.0902677 -0.0515433,-0.0227323 -0.105772,-0.0311929 -0.158256,-0.0271142l0.035437 0.290177z"/>
   <path id="_492573776" class="fil3" d="M5.37546 1.05321l0.457205 0.201661c0.120165,0.053 0.175102,0.194681 0.12211,0.314831l-0.0844646 0.1915 -0.894146 -0.394378 0.0844646 -0.191504c0.053,-0.120161 0.194669,-0.17511 0.314831,-0.12211z"/>
   <path id="_492573560" class="fil4" d="M5.64323 1.66105l0.00366535 0.00161811 0.223413 0.0985394 -1.38898 3.14911 -0.00538189 -0.00237402c-0.0161614,-0.0381339 -0.0458386,-0.070126 -0.086063,-0.0878661 -0.0402205,-0.0177402 -0.0838465,-0.0180787 -0.122898,-0.00429921l-0.0127362 -0.00561811 1.38898 -3.14911z"/>
   <path id="_492573920" class="fil5" d="M5.42324 1.56402l0.00366535 0.00161417 0.216331 0.0954173 -1.38898 3.14911 -0.00208661 -0.00092126c-0.0161575,-0.0381299 -0.0458268,-0.0701181 -0.0860472,-0.0878583 -0.0402205,-0.0177402 -0.0838543,-0.0180906 -0.122913,-0.00430709l-0.00894882 -0.00394882 1.38898 -3.14911z"/>
   <path id="_492574256" class="fil4" d="M5.20324 1.46698l0.00366929 0.00161811 0.216327 0.0954173 -1.38898 3.14911 -0.00770472 -0.00339764c-0.0161535,-0.0381339 -0.0458268,-0.0701181 -0.0860512,-0.0878583 -0.0402205,-0.0177441 -0.0838465,-0.0180827 -0.122898,-0.00430315l-0.00334252 -0.00147244 1.38898 -3.14911z"/>
   <path id="_492574208" class="fil5" d="M4.97617 1.36682l0.227075 0.100157 -1.38898 3.14911 -0.0114803 -0.00506299c-0.0161575,-0.0381339 -0.0458268,-0.070122 -0.0860472,-0.0878622 -0.0402244,-0.0177402 -0.0838622,-0.0180866 -0.122913,-0.00430709l-0.00663386 -0.0029252 1.38898 -3.14911z"/>
   <polygon id="_492573056" class="fil6" points="5.64323,1.66105 5.6469,1.66267 5.87031,1.7612 5.66217,2.2331 5.43821,2.13432 5.43509,2.13294 "/>
   <polygon id="_492572792" class="fil7" points="5.42324,1.56402 5.4269,1.56563 5.64323,1.66105 5.43509,2.13294 5.21821,2.03729 5.21509,2.03591 "/>
   <polygon id="_492573008" class="fil6" points="5.20324,1.46698 5.20691,1.4686 5.42324,1.56402 5.21509,2.03591 4.99822,1.94025 4.9951,1.93888 "/>
   <polygon id="_492572768" class="fil7" points="4.97617,1.36682 5.20324,1.46698 4.9951,1.93888 4.76802,1.83872 "/>
  </g>
  <polygon class="fil8" points="0.96,5.55325 3.73333,5.55325 3.73333,5.65992 0.96,5.65992 "/>
 </g>
</svg>
